<svg xmlns="http://www.w3.org/2000/svg" viewBox="0 0 209.140 74.211">
<g transform="translate(246.576, -65.679) rotate(90)">
<path fill="#EAF0F7" d="m 139.81445,213.1339 c -0.44723,4.55 -1.81775,9.252 -3.85264,13.21773 -5.84647,11.39399 -16.9386,18.93486 -29.61888,20.1361 -1.7995,0.17048 -5.21797,0.17272 -6.997863,0.005 -14.712566,-1.38967 -27.173047,-11.29963 -31.796826,-25.28838 -1.282366,-3.87966 -1.850606,-7.47551 -1.850606,-11.71071 0,-3.23822 0.300256,-5.84376 1.015808,-8.81489 2.953909,-12.26532 12.19256,-22.35697 24.151219,-26.3811 l 1.33336,-0.44868 1.69e-4,-10.81617 1.7e-4,-10.81616 h -5.406033 c -3.738179,0 -5.489088,-0.029 -5.675239,-0.0939 -0.529836,-0.1847 -0.518062,-0.0553 -0.518062,-5.69265 0,-2.93692 0.03753,-5.48324 0.08807,-5.97575 0.317951,-3.09835 1.692394,-5.13729 4.04015,-5.99344 1.194683,-0.43566 2.850577,-0.61254 4.205748,-0.44925 1.423453,0.17152 2.49305,0.58509 3.378582,1.30637 l 0.46134,0.37575 0.142934,-0.37426 c 0.228614,-0.59861 0.90575,-1.56579 1.432751,-2.04644 0.586652,-0.53506 1.772794,-1.13928 2.718096,-1.38461 0.962295,-0.24974 2.710613,-0.30924 3.751412,-0.12767 3.36039,0.58622 5.56139,3.10305 6.15319,7.03613 0.1043,0.6932 0.12748,1.94514 0.12789,6.90674 l 5.1e-4,6.06008 -0.21846,0.20525 -0.21846,0.20526 -6.2162,0.0228 -6.216274,0.0228 v 10.5394 c 0,5.79667 0.02858,10.53883 0.0635,10.53814 0.03493,-6.7e-4 0.310903,-0.0596 0.613283,-0.13082 0.93833,-0.22115 3.029239,-0.53741 4.437982,-0.67126 1.758319,-0.16707 5.199469,-0.16707 6.957799,0 7.34025,0.69744 14.09466,3.43609 19.81049,8.03238 7.84874,6.31143 12.76106,15.44368 13.7097,25.48706 0.15835,1.67646 0.15377,5.46764 -0.009,7.11956 z m -1.98091,-6.68866 c -0.13854,-1.52484 -0.42161,-3.36937 -0.72447,-4.72087 -0.15646,-0.69816 -0.29951,-1.28443 -0.31789,-1.30281 -0.0184,-0.0184 -0.86768,0.45609 -1.88732,1.05438 l -1.85389,1.08781 -0.0509,0.50141 c -0.0867,0.85386 -0.418,1.4055 -1.14416,1.90512 l -0.37126,0.25543 v 7.88163 7.88163 l 0.33265,0.36088 c 0.57438,0.62313 0.72128,0.9933 0.73158,1.84346 l 0.009,0.74607 0.88154,0.5406 c 0.48484,0.29733 0.90742,0.51405 0.93906,0.48159 0.11857,-0.12162 1.08174,-2.3858 1.46576,-3.44566 1.03558,-2.8581 1.7853,-6.30611 2.01584,-9.27101 0.0698,-0.89811 0.052,-4.9461 -0.0256,-5.79966 z m -2.12671,-9.42585 c -1.91839,-5.12271 -5.24523,-10.03244 -9.22354,-13.61209 -0.56403,-0.5075 -1.07939,-0.9532 -1.14525,-0.99044 -0.10207,-0.0577 -0.11974,0.31294 -0.11974,2.51193 v 2.57963 l 3.00503,1.74852 c 1.65276,0.96168 3.06246,1.83052 3.13266,1.93074 0.10986,0.15685 0.12764,0.8099 0.12764,4.68826 v 4.50603 l 0.18817,0.1318 c 0.1035,0.0725 0.23916,0.1318 0.30147,0.1318 0.0623,0 0.90155,-0.46163 1.86499,-1.02584 2.22049,-1.30038 2.30204,-1.35 2.30204,-1.40074 0,-0.0232 -0.19506,-0.56298 -0.43347,-1.1996 z m -3.50515,29.21446 -1.10228,-0.68162 -0.46405,0.12416 c -1.41338,0.37816 -2.9272,-0.60565 -3.16973,-2.05996 l -0.0592,-0.35481 -1.87724,-1.15969 c -1.03249,-0.63782 -2.00107,-1.28722 -2.15241,-1.44311 l -0.27517,-0.28343 v -5.28351 -5.28351 l -0.64108,-0.30444 c -2.93586,-1.39424 -2.916,-5.6323 0.0328,-7.00616 l 0.61067,-0.28451 -0.0224,-2.53936 -0.0224,-2.53936 -2.84853,-1.74965 -2.84853,-1.74964 -0.42038,0.20805 c -0.51338,0.25406 -1.2329,0.33896 -1.75613,0.20721 l -0.39068,-0.0984 -1.81642,1.03955 c -1.56375,0.89494 -1.80995,1.0631 -1.76994,1.20888 0.29191,1.06354 0.23378,1.97075 -0.18075,2.82105 -0.31467,0.64548 -1.04892,1.36428 -1.66229,1.62734 l -0.48565,0.20828 0.02,11.45614 0.02,11.45615 3.38666,1.97099 3.38667,1.97098 0.508,-0.39861 c 1.00075,-0.78525 1.9403,-1.12365 3.13267,-1.12828 0.4191,-0.002 0.97155,0.0466 1.22766,0.10708 1.75265,0.41414 3.22181,1.86888 3.68473,3.64855 0.13175,0.50653 0.14008,1.49563 0.0213,2.52829 -0.0203,0.17676 0.15867,0.30644 1.54333,1.118 0.86148,0.50492 1.60925,0.91977 1.66172,0.92188 0.18299,0.007 2.26883,-2.34257 3.34914,-3.77317 0.90818,-1.20265 2.5795,-3.74669 2.50042,-3.80605 -0.0101,-0.008 -0.51431,-0.32045 -1.12057,-0.69534 z m 0.51001,-24.12121 c -0.28139,-0.94755 -1.22472,-1.63475 -2.24406,-1.63475 -1.01933,0 -1.96267,0.6872 -2.24406,1.63475 -0.27282,0.91868 -0.075,1.66449 0.62196,2.34514 1.00325,0.97975 2.42364,0.93422 3.36042,-0.10771 0.58698,-0.65286 0.75524,-1.39727 0.50574,-2.23743 z m -0.56156,1.119 c -0.2204,0.98129 -1.39569,1.57215 -2.34138,1.17711 -1.10171,-0.46021 -1.43145,-1.78559 -0.67313,-2.70556 1.16538,-1.41381 3.41876,-0.27127 3.01451,1.52845 z m 0.0102,19.0359 c -0.52306,-1.21993 -1.9759,-1.76505 -3.16007,-1.18568 -0.8972,0.43895 -1.37814,1.27711 -1.31018,2.28327 0.0425,0.62861 0.24898,1.08558 0.67935,1.50324 0.43858,0.42563 0.85862,0.61098 1.47963,0.65291 1.78322,0.12042 3.01469,-1.6132 2.31127,-3.25374 z m -0.6198,1.75388 c -0.25945,0.49125 -0.83833,0.85522 -1.43653,0.90319 -1.30655,0.10479 -2.25725,-1.35977 -1.64073,-2.52756 0.65928,-1.24877 2.53954,-1.2206 3.11519,0.0467 0.21998,0.48428 0.20474,1.1182 -0.0379,1.57768 z m -2.37687,-18.98476 c -0.17292,-0.0788 -0.27405,-0.0503 -0.67733,0.19093 l -0.47406,0.28354 v 0.51277 c 0,1.34441 -0.64684,2.51601 -1.80329,3.26621 -0.27002,0.17516 -0.6037,0.34325 -0.74152,0.37352 l -0.25057,0.055 0.0219,4.83658 0.0219,4.83658 1.47092,0.9211 1.47092,0.9211 0.57695,-0.28239 0.57694,-0.28239 0.005,-7.76998 0.005,-7.76999 -0.20327,-0.0926 z m -2.65578,-14.29543 c -1.57077,-0.90714 -2.97977,-1.7701 -3.13111,-1.9177 l -0.27517,-0.26836 v -3.94357 -3.94358 l -0.8826,-0.59216 c -1.37838,-0.92479 -3.99565,-2.39355 -4.59956,-2.58118 l -0.1905,-0.0592 v 6.01953 6.01953 l 0.3317,0.41964 c 0.36164,0.45751 0.5082,0.81865 0.58928,1.45206 l 0.0527,0.41159 3.21734,1.97579 c 2.32004,1.42476 3.27046,2.05367 3.40783,2.25505 0.18867,0.27659 0.1905,0.30789 0.1905,3.26443 v 2.98517 l 0.54807,0.25647 c 0.30145,0.14106 0.73533,0.43163 0.9642,0.64571 l 0.41613,0.38924 0.32696,-0.18945 c 0.4264,-0.24706 0.45081,-0.28946 0.45454,-0.78968 0.002,-0.23283 0.0747,-0.58095 0.1622,-0.7736 0.19193,-0.42267 0.70909,-1.01163 1.03737,-1.18139 l 0.2392,-0.12369 -0.002,-4.04066 -0.002,-4.04066 -2.85594,-1.64934 z m 1.24476,14.73198 c -0.32254,-1.98802 -2.23089,-3.39504 -4.15677,-3.06479 -1.45014,0.24867 -2.5292,1.18342 -2.95853,2.56285 -0.52438,1.68485 0.31669,3.59335 1.91727,4.35055 1.40581,0.66505 2.96408,0.40419 4.10899,-0.68786 0.69126,-0.65936 1.04916,-1.43325 1.1688,-2.52739 0.005,-0.0466 -0.0308,-0.33158 -0.0798,-0.63336 z m -0.70406,1.49491 c -0.1693,0.51867 -0.43168,0.90356 -0.9077,1.33155 -1.34508,1.20934 -3.52372,0.93425 -4.52324,-0.57114 -1.02811,-1.54845 -0.4929,-3.58486 1.15944,-4.41149 0.54453,-0.27241 0.66782,-0.3008 1.30639,-0.3008 0.91882,0 1.48694,0.20869 2.10444,0.77305 0.66265,0.60562 0.92019,1.17371 0.95149,2.09877 0.0152,0.44979 -0.0194,0.86118 -0.0908,1.08006 z m -2.60613,28.30087 -1.28738,-0.74259 -0.42708,0.3736 c -0.48173,0.4214 -1.35299,0.90374 -1.89122,1.04699 l -0.35983,0.0958 v 1.94315 1.94316 l 0.5714,-0.34974 c 1.78952,-1.0953 4.86264,-3.38661 4.72576,-3.5235 -0.0244,-0.0243 -0.62359,-0.37842 -1.33165,-0.78685 z m -0.36755,-5.03242 c -0.59564,-2.83702 -3.57349,-4.54383 -6.23776,-3.57529 -0.75927,0.27601 -1.29648,0.63389 -1.90895,1.27172 -1.38323,1.44049 -1.69157,3.59663 -0.77452,5.41594 0.32254,0.63987 1.35824,1.69682 1.99379,2.03471 0.56378,0.29973 1.61703,0.56833 2.22119,0.56645 2.22546,-0.007 4.23255,-1.63277 4.70153,-3.80853 0.15529,-0.72041 0.15643,-1.18239 0.005,-1.905 z m -0.74848,2.263 c -0.37395,1.09728 -1.06942,1.88016 -2.12982,2.39753 -3.54043,1.72739 -7.26322,-2.04767 -5.51253,-5.58993 0.78451,-1.58735 2.62935,-2.53912 4.35686,-2.24773 0.70984,0.11972 1.60491,0.53487 2.12185,0.98413 1.18955,1.03382 1.68428,2.92831 1.16364,4.456 z m -5.45298,3.41644 c -0.61916,-0.19223 -1.24038,-0.54352 -1.74203,-0.98509 -0.21668,-0.19073 -0.44351,-0.33439 -0.50406,-0.31923 -0.0605,0.0152 -1.98683,1.10976 -4.28063,2.43246 -3.26503,1.88277 -4.15936,2.43402 -4.11909,2.53896 0.11545,0.30085 0.14032,1.18317 0.0462,1.63681 -0.22848,1.10055 -1.02704,2.13129 -1.99429,2.57411 -0.44898,0.20555 -0.46589,0.22531 -0.46589,0.54445 v 0.33116 l 0.52917,-0.0473 c 4.36081,-0.38979 8.01336,-1.31371 11.76867,-2.97692 l 1.24883,-0.5531 v -2.51258 -2.51258 z m 0.0977,-45.20434 c -0.15768,-0.46275 -0.69176,-1.04638 -1.17715,-1.28634 -0.25207,-0.12462 -0.51187,-0.16743 -1.016,-0.16743 -0.80342,0 -1.17694,0.15235 -1.70633,0.69595 -0.8819,0.90559 -0.82424,2.50493 0.12022,3.33417 1.19858,1.05237 2.99141,0.70992 3.69708,-0.70618 0.25928,-0.5203 0.29159,-1.25559 0.0822,-1.87017 z m -0.65449,1.64442 c -0.29359,0.5561 -0.78482,0.866 -1.43457,0.90501 -0.43397,0.026 -0.59494,-0.004 -0.90843,-0.17193 -0.56672,-0.30285 -0.87436,-0.78988 -0.91031,-1.44117 -0.0255,-0.46243 0.002,-0.58105 0.22528,-0.96254 0.30039,-0.51377 0.91747,-0.87722 1.48937,-0.87722 0.20516,0 0.52964,0.0906 0.79136,0.22106 0.85604,0.42658 1.19436,1.47998 0.7473,2.32679 z m -2.851,-16.16056 c -1.26137,-0.45056 -3.23104,-0.99663 -4.61636,-1.27985 -2.2991,-0.47004 -3.65939,-0.61122 -6.37419,-0.66155 -3.28398,-0.0609 -5.367126,0.11945 -8.165764,0.70692 l -1.079987,0.2267 0.02165,6.99099 0.02165,6.99099 0.9153,0.53088 0.9153,0.53088 0.393231,-0.30026 c 0.609176,-0.46514 1.405916,-0.80574 2.20981,-0.94469 1.61743,-0.27956 3.31105,0.27505 4.44093,1.45427 0.20207,0.21088 0.39629,0.38343 0.4316,0.38343 0.0353,0 1.50881,-0.8382 3.27444,-1.86267 2.91077,-1.68891 3.24643,-1.86267 3.59813,-1.86267 0.3487,0 0.56292,0.10794 2.1207,1.06846 0.95306,0.58765 1.77852,1.07129 1.83436,1.07475 0.0558,0.003 0.28274,-0.0472 0.50423,-0.11249 l 0.4027,-0.11879 -0.0217,-6.264 -0.0217,-6.26399 z m -0.0447,55.37038 c -0.0481,-0.50432 0.0129,-1.16559 0.16566,-1.795 0.049,-0.20196 -0.11663,-0.30869 -3.61197,-2.32719 -2.01483,-1.16354 -3.78716,-2.23605 -3.9385,-2.38337 l -0.27516,-0.26784 v -11.93485 -11.93484 l -0.55867,-0.27503 c -0.30726,-0.15127 -0.72588,-0.43525 -0.93025,-0.63107 l -0.37158,-0.35605 -3.70525,2.13612 -3.705251,2.13611 -0.01832,10.78117 -0.01832,10.78117 0.388503,0.24621 c 0.424075,0.26875 0.827471,0.83129 0.977013,1.36246 0.05244,0.18626 0.155898,0.40093 0.229904,0.47704 0.07401,0.0761 1.182311,0.73943 2.462881,1.47405 2.9423,1.68788 2.93683,1.68437 3.13542,2.01007 0.1561,0.25602 0.16597,0.44082 0.16627,3.11415 l 3.3e-4,2.84198 0.60464,0.31022 0.60463,0.31022 3.98853,-2.29794 c 5.11067,-2.94444 4.62961,-2.63173 4.53833,-2.95003 -0.0411,-0.14323 -0.0991,-0.51572 -0.12881,-0.82776 z m -1.22531,-40.11465 c 0,-0.41494 0.11214,-0.32271 -1.83248,-1.50712 l -0.94348,-0.57464 -2.95747,1.71656 -2.95747,1.71657 -0.003,1.02164 c -0.003,0.80162 -0.0419,1.14015 -0.18198,1.57197 -0.52702,1.62495 -1.88757,2.91368 -3.52685,3.34065 -0.64675,0.16846 -1.866631,0.16732 -2.52146,-0.002 -0.565464,-0.14652 -1.299061,-0.49608 -1.749941,-0.83383 -0.160388,-0.12015 -0.331838,-0.21659 -0.381,-0.21431 -0.04916,0.002 -1.708633,0.94584 -3.687717,2.09681 l -3.598333,2.09267 -0.0518,0.63538 c -0.200522,2.45936 -2.934837,3.9565 -5.172935,2.83237 l -0.405897,-0.20387 -2.899682,1.68168 -2.899682,1.68168 -0.02144,12.78535 -0.02144,12.78535 0.952773,0.88731 c 1.186414,1.1049 2.045614,1.83405 3.119457,2.64728 0.888478,0.67285 3.104551,2.15318 3.223342,2.15318 0.03903,0 0.07097,-0.35771 0.07097,-0.79491 v -0.79491 l -0.290402,-0.0545 c -0.605236,-0.11354 -1.513735,-0.65475 -2.132085,-1.27012 -1.064914,-1.05977 -1.524075,-2.27092 -1.446912,-3.81658 0.04947,-0.99091 0.254029,-1.65589 0.741295,-2.40979 0.895828,-1.38602 2.29423,-2.18344 3.974771,-2.26657 1.353982,-0.067 2.600444,0.36198 3.560767,1.22539 l 0.416031,0.37405 2.098218,-1.19855 2.098218,-1.19854 0.14306,-0.48542 c 0.156984,-0.53267 0.632788,-1.14529 1.12649,-1.45042 l 0.293883,-0.18163 v -11.26222 -11.26223 l 0.275167,-0.26901 c 0.151341,-0.14795 2.146711,-1.34632 4.434154,-2.66304 l 4.15898,-2.39403 0.0398,-0.60933 c 0.15575,-2.38352 2.9561,-3.92064 5.13301,-2.81752 l 0.4029,0.20417 1.13881,-0.65363 c 2.55159,-1.46449 2.39021,-1.35122 2.33296,-1.63748 -0.0281,-0.14063 -0.0511,-0.42122 -0.0511,-0.62351 z m -2.3066,4.60092 c -0.30877,-0.67068 -0.98223,-1.35917 -1.65207,-1.68893 -1.09704,-0.54007 -2.54003,-0.38885 -3.49537,0.3663 -1.27983,1.01164 -1.69437,2.66538 -1.02611,4.09343 0.8725,1.86448 3.15157,2.55578 4.85417,1.47237 1.1044,-0.70275 1.61016,-1.66856 1.5679,-2.99411 -0.0195,-0.61098 -0.0687,-0.85854 -0.24852,-1.24906 z m -0.43487,2.19528 c -0.38583,1.17983 -1.42143,1.92463 -2.68124,1.92834 -0.55234,0.002 -0.71504,-0.0355 -1.19925,-0.27392 -1.00139,-0.49298 -1.54238,-1.36061 -1.54238,-2.47364 0,-1.09067 0.56921,-2.01765 1.53458,-2.49913 0.42325,-0.21109 0.59127,-0.24561 1.2111,-0.24882 0.61947,-0.003 0.78616,0.0289 1.19731,0.23085 0.56238,0.27618 1.11824,0.84736 1.36396,1.40156 0.21915,0.49426 0.2761,1.44493 0.11592,1.93476 z m -3.67689,40.81473 c -0.34882,-0.70854 -1.08862,-1.41146 -1.77021,-1.68196 -0.38646,-0.15337 -0.65941,-0.19506 -1.29409,-0.19768 -0.73257,-0.003 -0.85526,0.0208 -1.37506,0.26704 -1.72413,0.81674 -2.469337,2.79568 -1.6844,4.47306 0.99008,2.11575 3.66798,2.65948 5.34988,1.08626 0.81877,-0.76586 1.10614,-1.46924 1.07082,-2.62095 -0.0206,-0.67009 -0.0593,-0.84304 -0.29694,-1.32577 z m -0.42555,2.37536 c -0.57625,1.61479 -2.41185,2.33237 -3.91578,1.53078 -0.95514,-0.50909 -1.46423,-1.35988 -1.46246,-2.4441 0.002,-1.11305 0.54258,-1.98515 1.53342,-2.47294 0.50266,-0.24746 0.6451,-0.27894 1.24662,-0.27548 0.56105,0.003 0.76217,0.044 1.15687,0.23469 0.56071,0.27086 1.11709,0.84097 1.36385,1.39753 0.24868,0.56087 0.28278,1.45424 0.0775,2.02952 z m -0.0616,-102.50312 c -0.16293,-1.10931 -0.60615,-2.4713 -1.07807,-3.31286 -0.23348,-0.41636 -0.61939,-0.90091 -1.12079,-1.4073 -0.65818,-0.66472 -0.87636,-0.82582 -1.56633,-1.15663 -1.21383,-0.58196 -1.7478,-0.69303 -3.299304,-0.68627 -1.067547,0.005 -1.436751,0.0397 -1.979351,0.18794 -1.74732,0.47733 -2.842044,1.34711 -3.563746,2.83147 -0.221297,0.45515 -0.471827,0.86473 -0.556731,0.91017 -0.333165,0.17831 -0.648107,0.0925 -1.111093,-0.30273 -0.602726,-0.5145 -1.021754,-0.75106 -1.783212,-1.00667 -1.76377,-0.59208 -4.326892,-0.40789 -5.905818,0.4244 -1.481222,0.78078 -2.365432,2.0786 -2.814571,4.13113 -0.182913,0.8359 -0.187844,0.9991 -0.190131,6.29364 -0.0019,4.34919 0.01965,5.45751 0.107711,5.54567 0.08914,0.0892 2.436744,0.11436 12.353732,0.13219 10.882614,0.0196 12.265694,0.008 12.441774,-0.10778 l 0.1981,-0.1298 v -5.72335 c 0,-4.74611 -0.0226,-5.877 -0.13217,-6.62322 z M 93.891636,151.0309 H 81.784302 l 3.39e-4,-5.18583 c 2.54e-4,-4.14399 0.0252,-5.33892 0.124098,-5.94784 0.406483,-2.50278 1.622817,-3.95511 3.812561,-4.55229 0.38686,-0.10551 1.005751,-0.1776 1.782235,-0.20761 1.939292,-0.0749 3.06123,0.24354 4.228452,1.20029 0.618487,0.50697 0.919482,0.61312 1.34257,0.47349 0.397286,-0.13112 0.577214,-0.35201 1.03791,-1.27421 0.688951,-1.37911 1.641629,-2.11625 3.292834,-2.54783 0.957778,-0.25034 2.768289,-0.25103 3.711949,-0.001 2.74138,0.72514 4.43427,3.03301 4.79365,6.535 0.051,0.4965 0.0881,3.10267 0.0881,6.18325 v 5.32502 z m 7.629534,-10.08965 c -0.28855,-1.11234 -0.70512,-1.71301 -1.47228,-2.12294 -0.30892,-0.16507 -0.484343,-0.19108 -1.288921,-0.19108 -0.814272,0 -0.979223,0.0251 -1.312333,0.19963 -1.232429,0.64574 -1.604894,1.61017 -1.606881,4.16071 -0.0018,2.32681 -0.02998,2.30578 3.040563,2.26897 1.979372,-0.0237 2.125142,-0.0362 2.349152,-0.20066 0.49457,-0.36312 0.55329,-0.60915 0.50379,-2.11065 -0.0315,-0.95509 -0.0943,-1.54619 -0.21309,-2.00398 z m -0.3049,3.50374 c -0.20945,0.36974 -0.56026,0.42137 -2.654275,0.39066 l -1.891308,-0.0277 -0.214884,-0.24999 -0.214884,-0.24997 0.04417,-1.57036 c 0.04723,-1.67924 0.144849,-2.19178 0.535206,-2.81014 0.688382,-1.09047 2.700487,-1.24172 3.602525,-0.27079 0.56202,0.60494 0.7897,1.48574 0.87196,3.37325 0.0427,0.97903 0.029,1.22532 -0.0785,1.41509 z m -0.87929,-3.50119 c -0.30915,-0.96002 -0.982692,-1.38068 -1.94923,-1.21738 -1.058984,0.17891 -1.442568,1.07181 -1.446437,3.36698 l -0.0017,0.99483 h 1.830628 1.830629 l -0.0414,-1.29116 c -0.0322,-1.00262 -0.0819,-1.41679 -0.22246,-1.85327 z m -8.816411,2.11386 c -0.168039,-1.16173 -0.652497,-1.95488 -1.439193,-2.35623 -1.093306,-0.55776 -2.701362,-0.27213 -3.394418,0.60292 -0.484585,0.61184 -0.613045,1.03737 -0.652846,2.16263 l -0.03642,1.02976 0.342413,0.36724 0.342413,0.36725 1.974729,0.0239 c 2.283946,0.0276 2.421255,-0.005 2.757893,-0.66188 0.209103,-0.40779 0.228241,-0.68652 0.105434,-1.53554 z m -0.632434,1.53857 -0.227475,0.21167 h -1.90551 -1.90551 l -0.215586,-0.25063 c -0.207775,-0.24155 -0.214009,-0.28156 -0.172034,-1.10399 0.05364,-1.05106 0.263623,-1.59927 0.790071,-2.06267 0.437024,-0.38468 0.846262,-0.51999 1.569367,-0.51888 0.391096,8.5e-4 0.657534,0.0562 0.963844,0.20096 0.886311,0.419 1.238087,1.07786 1.293609,2.42288 0.03619,0.87673 0.03356,0.89192 -0.190776,1.10066 z m -0.560947,-1.7805 c -0.230826,-1.07631 -1.377498,-1.59505 -2.367992,-1.07126 -0.511748,0.27061 -0.742134,0.7376 -0.812211,1.64635 l -0.05378,0.69741 h 1.663549 1.663549 v -0.41916 c 0,-0.23054 -0.0419,-0.61455 -0.09311,-0.85334 z m 13.884232,50.10817 c -0.23938,-1.13996 -1.11252,-2.39276 -2.11679,-3.0372 -1.86776,-1.19854 -4.285578,-0.93511 -5.882886,0.64096 -0.891339,0.8795 -1.470501,2.21344 -1.470501,3.38691 0,1.14112 0.57123,2.47898 1.425085,3.33766 1.232693,1.23967 2.874927,1.70278 4.533742,1.27852 0.918,-0.23478 1.43228,-0.53531 2.17352,-1.27012 1.18833,-1.17804 1.67193,-2.74566 1.33783,-4.33673 z m -0.65206,2.049 c -0.17279,0.66106 -0.50761,1.25418 -1.01297,1.79445 -1.98163,2.11853 -5.452638,1.56868 -6.756101,-1.07025 l -0.33232,-0.6728 v -1.10931 -1.10932 l 0.33232,-0.67322 c 1.270936,-2.57467 4.511911,-3.17392 6.600251,-1.22038 1.12211,1.04968 1.55907,2.56781 1.16882,4.06083 z m -1.30335,48.84598 c -0.24252,-0.11274 -0.61758,-0.34404 -0.83346,-0.51401 l -0.39252,-0.30903 -1.285586,0.74156 -1.285593,0.74155 0.531559,0.0562 c 0.292357,0.0309 1.24593,0.08 2.11905,0.10913 l 1.5875,0.0529 v -0.33668 c 0,-0.32313 -0.0177,-0.34493 -0.44095,-0.54165 z m -1.76037,-12.88131 c -1.187454,-0.68646 -2.183751,-1.24884 -2.213996,-1.24972 -0.03025,-8.8e-4 -0.249053,0.12898 -0.486238,0.2886 -0.990874,0.6668 -2.088885,0.59195 -3.236546,-0.22065 -0.112522,-0.0797 -0.478957,0.097 -2.043474,0.9854 l -1.906364,1.08248 0.09112,0.30711 c 0.05011,0.16892 0.09278,0.70717 0.0948,1.19612 0.003,0.71393 -0.03607,1.01116 -0.198205,1.5094 -0.207736,0.63835 -0.620935,1.35219 -1.095712,1.89293 -0.403036,0.45903 -1.33341,1.06014 -2.002624,1.29389 l -0.591766,0.20669 -0.02315,1.38781 -0.02316,1.38781 1.081488,0.48951 c 2.053178,0.92931 4.09617,1.64764 6.143508,2.1601 l 1.050436,0.26292 2.489439,-1.43277 2.489434,-1.43277 0.0487,-0.7578 c 0.087,-1.35522 0.73255,-2.3609 1.89914,-2.95881 l 0.63589,-0.32591 -0.0219,-2.41211 -0.0219,-2.41211 z m -2.019892,-4.10658 c -0.764012,-1.49622 -2.701818,-1.77932 -3.826626,-0.55905 -0.459211,0.49819 -0.61427,0.88599 -0.620403,1.55163 -0.01199,1.30177 0.885063,2.26836 2.182438,2.35162 0.496007,0.0318 0.687347,0.005 1.036584,-0.14521 0.543627,-0.23386 1.087581,-0.78566 1.304065,-1.32288 0.218154,-0.54136 0.184749,-1.36536 -0.07606,-1.87611 z m -0.470321,1.61702 c -0.390297,1.05142 -1.713829,1.4786 -2.616193,0.8444 -0.497443,-0.34962 -0.732478,-0.80058 -0.734206,-1.40871 -0.0031,-1.0962 0.794482,-1.82826 1.891929,-1.73647 1.09341,0.0914 1.840881,1.2706 1.45847,2.30078 z M 94.691518,195.0999 c -0.155344,-0.65736 -0.155571,-1.82731 -5.08e-4,-2.42278 0.06714,-0.25777 0.133817,-0.51694 0.148167,-0.57591 0.01505,-0.0618 -0.490588,-0.40195 -1.19449,-0.80346 -0.964047,-0.5499 -1.253207,-0.75706 -1.375833,-0.98571 -0.146991,-0.27415 -0.155219,-0.66582 -0.155219,-7.39083 v -7.10133 l -0.230544,0.0579 c -0.1268,0.0318 -0.707825,0.23059 -1.291167,0.44171 -7.604485,2.75207 -14.138218,8.19978 -18.303982,15.26152 -0.515773,0.87433 -0.557245,0.97793 -0.426951,1.06657 0.07937,0.054 2.63238,1.53744 5.673352,3.29655 l 5.529042,3.19836 0.609292,-0.28561 c 0.581302,-0.27248 0.65402,-0.2856 1.582958,-0.2856 0.923301,0 1.002135,0.014 1.524,0.2701 0.302684,0.14855 0.710786,0.42478 0.906896,0.61383 0.196109,0.18905 0.383676,0.34373 0.416815,0.34373 0.03314,0 1.579796,-0.88136 3.437014,-1.95858 2.676426,-1.55237 3.365814,-1.98697 3.323982,-2.0955 -0.02903,-0.0753 -0.106798,-0.36552 -0.172824,-0.64492 z m -4.230713,37.08063 c -0.223308,-0.87469 -0.61067,-1.54896 -1.261425,-2.19575 -0.989664,-0.98362 -2.057912,-1.42549 -3.435745,-1.42114 -1.289988,0.004 -2.460074,0.52574 -3.392594,1.51255 -0.927911,0.98193 -1.29073,1.89453 -1.292381,3.25072 -9.06e-4,0.74177 0.03507,0.99084 0.217201,1.50399 0.534306,1.50538 1.73571,2.64127 3.282441,3.10345 0.550543,0.1645 1.738427,0.18668 2.336022,0.0436 1.68011,-0.40225 3.101506,-1.79318 3.541629,-3.46571 0.162379,-0.61707 0.164645,-1.70581 0.0049,-2.33171 z m -0.582943,2.12004 c -0.368009,1.4879 -1.632317,2.74528 -3.100581,3.08361 -1.898688,0.43751 -3.86069,-0.53494 -4.719067,-2.33897 -0.289078,-0.60755 -0.316454,-0.73058 -0.344652,-1.54897 -0.02555,-0.74144 -3.39e-4,-0.97875 0.15185,-1.42973 0.588744,-1.74458 2.145487,-2.88423 3.943935,-2.88727 1.179121,-0.002 2.129109,0.39147 2.959955,1.22591 1.025059,1.0295 1.448973,2.51911 1.10856,3.89542 z m -1.495219,-33.44333 c -0.14711,-0.39345 -0.325394,-0.64285 -0.790641,-1.106 -0.766191,-0.76275 -1.354448,-1.01069 -2.3787,-1.00256 -1.889315,0.015 -3.344333,1.47822 -3.344333,3.36319 0,1.69826 1.139676,3.05445 2.82834,3.36567 1.26031,0.23227 2.807811,-0.50348 3.483298,-1.65611 0.489376,-0.83506 0.567817,-1.98591 0.202036,-2.96419 z m -0.417892,1.79027 c -0.260247,1.25831 -1.272807,2.13702 -2.550504,2.21336 -1.165257,0.0696 -2.052777,-0.41419 -2.607274,-1.4213 -0.284953,-0.51755 -0.302904,-0.59573 -0.301323,-1.31233 0.002,-0.91165 0.192184,-1.38384 0.804953,-1.99871 0.772566,-0.7752 2.07641,-0.99108 3.089926,-0.5116 1.140153,0.53939 1.810746,1.83862 1.564222,3.03058 z m -6.30246,-0.43561 c -0.0027,-0.37253 0.02334,-0.82973 0.05796,-1.016 l 0.06295,-0.33866 -5.427772,-3.13267 c -2.985273,-1.72297 -5.47568,-3.14404 -5.534235,-3.15795 -0.12557,-0.0298 -0.694778,1.23405 -1.270914,2.82193 -0.859077,2.36769 -1.472758,4.89562 -1.838909,7.57502 -0.169093,1.23739 -0.190905,1.75009 -0.190905,4.48733 0,2.73725 0.02181,3.24995 0.190905,4.48734 0.857651,6.27608 3.171598,11.94064 6.862099,16.79849 l 0.64917,0.85451 0.04233,-12.03764 c 0.04216,-11.98816 0.04305,-12.0386 0.21668,-12.27115 0.104841,-0.14041 1.370605,-0.92765 3.175006,-1.97469 1.650363,-0.95765 3.046005,-1.77061 3.101429,-1.80656 0.07654,-0.0496 0.07773,-0.1311 0.005,-0.33867 -0.05268,-0.15031 -0.09803,-0.57809 -0.100777,-0.95063 z M 123.3166,131.97737 c -0.28539,1.50056 -1.27357,2.81606 -2.608,3.47188 -0.78389,0.38526 -1.3319,0.51156 -2.21169,0.50973 -1.83885,-0.004 -3.47101,-1.01222 -4.26691,-2.63622 -0.44749,-0.91308 -0.55742,-1.51044 -0.50747,-2.75753 0.0462,-1.15235 0.21974,-1.76515 0.75945,-2.681 0.34262,-0.58143 0.87398,-1.23733 1.00239,-1.23733 0.0372,0 0.18598,0.14934 0.33056,0.33189 l 0.26285,0.33187 -0.43869,0.57829 c -0.96148,1.26744 -1.27883,2.55566 -0.96132,3.90232 0.4464,1.89333 2.04285,3.23349 3.85186,3.23349 1.91679,0 3.52665,-1.42964 3.95195,-3.50953 0.41158,-2.01288 -0.76816,-4.02866 -2.57611,-4.40168 l -0.27517,-0.0568 v 1.48839 1.4884 h -0.42333 -0.42334 v -1.98967 -1.98967 h 0.25757 c 0.53364,0 1.58307,0.27908 2.13247,0.56709 1.42768,0.74846 2.16039,2.0079 2.22931,3.83197 0.0211,0.55873 -0.0112,1.12881 -0.0864,1.52408 z m 0,-56.387996 c -0.35778,1.881132 -1.82592,3.43342 -3.65356,3.862967 -0.77255,0.181577 -2.00051,0.126001 -2.694,-0.121911 -1.43993,-0.514756 -2.48125,-1.553109 -3.03225,-3.023599 -0.16457,-0.439217 -0.18832,-0.666987 -0.18918,-1.814593 -9e-4,-1.209862 0.0165,-1.360348 0.22339,-1.927183 0.36165,-0.991057 1.29984,-2.372665 1.54681,-2.277898 0.0634,0.02432 0.21787,0.178774 0.3433,0.343231 l 0.22807,0.299008 -0.40134,0.490254 c -0.68597,0.837929 -1.13884,2.027454 -1.13629,2.984543 0.006,2.288929 1.83397,4.234705 3.97808,4.234705 2.37792,0 4.34891,-2.398624 3.99357,-4.860045 -0.22632,-1.56773 -1.25976,-2.773121 -2.61773,-3.0533 l -0.27517,-0.05677 v 1.488389 1.488398 h -0.42333 -0.42334 v -1.989667 -1.989666 h 0.24655 c 0.57309,0 1.56193,0.260781 2.13933,0.564201 1.43873,0.756031 2.16421,2.001656 2.23347,3.83485 0.0211,0.558732 -0.0112,1.128818 -0.0864,1.524085 z m 0.007,-12.639252 c -0.16652,0.507314 -0.41689,0.88005 -0.88571,1.318573 -0.37291,0.34881 -0.92654,0.709608 -0.98406,0.641282 -0.0127,-0.01507 -0.12334,-0.188409 -0.24589,-0.385182 l -0.22283,-0.357785 0.25883,-0.133841 c 0.77007,-0.398221 1.28914,-1.153973 1.28272,-1.867628 -0.008,-0.926245 -0.68054,-1.643304 -1.54053,-1.643304 -0.74174,0 -1.30508,0.435906 -2.40607,1.861769 -1.23025,1.593266 -1.73121,1.94658 -2.76008,1.94658 -1.31492,0 -2.11896,-0.843322 -2.11481,-2.218131 0.002,-0.771754 0.17541,-1.175698 0.77575,-1.810478 0.64098,-0.67774 0.67451,-0.68652 0.98263,-0.25748 l 0.26006,0.362136 -0.40955,0.385327 c -0.5136,0.483226 -0.70919,0.852508 -0.70919,1.338944 0,0.750832 0.49294,1.269077 1.20767,1.269687 0.62391,8.46e-4 1.00875,-0.298027 1.88693,-1.463845 1.41969,-1.884688 2.11676,-2.390766 3.28517,-2.385085 0.53913,0.0026 0.70347,0.04054 1.08844,0.251155 0.81406,0.445347 1.27505,1.205095 1.3321,2.195373 0.0213,0.370213 -0.01,0.733196 -0.0816,0.951933 z m -4.79429,88.758118 h -4.65666 v -2.667 -2.66701 h 0.46566 0.46567 v 2.20134 2.20133 h 1.48167 1.48166 v -2.20133 -2.20134 h 0.42334 0.42333 v 2.20134 2.20133 h 1.86267 1.86266 v -2.20133 -2.20134 h 0.42334 0.42333 v 2.66701 2.667 z m 0,-6.77334 c -2.8828,0 -4.65666,-0.0306 -4.65666,-0.0804 0,-0.0442 1.59591,-1.46344 3.54648,-3.15383 l 3.54648,-3.07345 -3.54648,-0.0221 -3.54648,-0.0221 v -0.46475 -0.46474 h 4.65666 c 3.73745,0 4.65667,0.0215 4.65667,0.10884 0,0.0599 -1.56844,1.47908 -3.48542,3.15383 l -3.48542,3.04499 3.48542,0.0221 3.48542,0.0221 v 0.46472 0.46473 z m 0,-20.32 h -4.65666 v -0.46566 -0.46567 h 4.65666 4.65667 v 0.46567 0.46566 z m 0,-2.87866 c -2.59054,0 -4.65666,-0.0327 -4.65666,-0.0738 0,-0.0406 1.59876,-1.45981 3.55281,-3.15384 l 3.55281,-3.08003 -3.55281,-0.0221 -3.55281,-0.0221 v -0.46475 -0.46475 h 4.65666 c 3.90474,0 4.65667,0.0189 4.65667,0.11694 0,0.0643 -1.5621,1.47994 -3.47133,3.14582 -1.90924,1.66588 -3.47134,3.06106 -3.47134,3.10039 0,0.0393 1.5621,0.0715 3.47134,0.0715 h 3.47133 v 0.42334 0.42333 z m 0,-9.31333 h -4.65666 v -2.667 -2.667 h 0.46566 0.46567 v 2.20333 2.20333 l 1.4605,-0.0232 1.4605,-0.0232 0.0226,-2.18017 0.0226,-2.18016 h 0.4219 0.42191 v 2.20298 2.20299 l 1.8415,-0.0228 1.8415,-0.0228 0.0226,-2.18017 0.0226,-2.18017 h 0.4219 0.42191 v 2.667 2.667 z m 0,-6.77334 h -4.65666 v -2.667 -2.667 h 0.46566 0.46567 v 2.24567 2.24566 l 1.4605,-0.0232 1.4605,-0.0232 0.0226,-2.18016 0.0226,-2.18017 h 0.42048 0.42047 l 0.0226,2.18017 0.0226,2.18016 h 1.82034 1.82033 l 0.0226,-2.18016 0.0226,-2.18017 h 0.4219 0.42191 v 2.62467 2.62466 z m 0,-6.773331 h -4.65666 l 0.002,-1.291167 c 0.003,-1.834219 0.10458,-2.740491 0.36304,-3.247153 0.42609,-0.835262 1.07365,-1.214162 2.08018,-1.217151 0.80682,-0.0024 1.2044,0.122072 1.65403,0.517847 0.45627,0.401624 0.69851,0.953871 0.8338,1.90086 l 0.10453,0.731621 1.60856,-1.249959 c 0.88471,-0.687477 1.84845,-1.439503 2.14165,-1.671168 l 0.53309,-0.421217 -0.0251,0.59541 -0.0251,0.595419 -2.11667,1.640569 c -2.04261,1.583173 -2.11667,1.65083 -2.11667,1.933829 v 0.29326 l 2.13784,0.02262 2.13783,0.02261 v 0.421886 0.421877 z m -0.68403,-3.743224 c -0.17546,-0.528269 -0.54294,-0.896205 -1.03919,-1.040468 -0.39544,-0.114961 -0.4879,-0.114944 -0.87549,0 -0.50407,0.14969 -0.90113,0.54593 -1.03686,1.034719 -0.0489,0.175895 -0.089,0.900837 -0.0893,1.610979 l -4.7e-4,1.291327 h 1.55222 c 0.85372,0 1.58193,-0.02858 1.61823,-0.0635 0.0992,-0.09539 -0.009,-2.471801 -0.12915,-2.833057 z m 0.68403,-3.707443 h -4.65666 v -0.465667 -0.465667 h 4.65666 4.65667 v 0.465667 0.465667 z m 0,-2.878667 c -2.96366,0 -4.65666,-0.02997 -4.65666,-0.08243 0,-0.04533 1.59436,-1.464556 3.54302,-3.153834 l 3.54303,-3.071402 -3.54303,-0.02209 -3.54302,-0.02208 v -0.464752 -0.464744 h 4.65666 c 3.72452,0 4.65667,0.02168 4.65667,0.108255 0,0.05955 -1.5708,1.478771 -3.49067,3.153834 l -3.49067,3.045578 3.49067,0.02211 3.49067,0.02211 v 0.464727 0.464727 z m -0.0128,-30.818668 h -4.66947 l 0.0499,-1.8415 c 0.0556,-2.052566 0.13926,-2.487736 0.5925,-3.081977 0.15132,-0.198391 0.46198,-0.455684 0.69453,-0.575234 0.36509,-0.187672 0.5274,-0.216145 1.22689,-0.215206 0.66133,8.47e-4 0.86696,0.03372 1.1448,0.182745 0.97747,0.524332 1.30666,1.493393 1.31086,3.859005 l 0.001,0.8255 h 2.159 2.159 v 0.423334 0.423333 z m -0.58537,-3.217334 c -0.11951,-0.739825 -0.42163,-1.241458 -0.87046,-1.445251 -0.73894,-0.335526 -1.55214,-0.117898 -1.98144,0.530284 -0.22816,0.344492 -0.2335,0.38172 -0.26109,1.818666 l -0.0282,1.466968 h 1.56822 1.56821 l 0.0332,-0.3175 c 0.0692,-0.661323 0.0572,-1.522484 -0.0285,-2.053167 z m 0.58547,-4.233333 h -4.66938 l 0.0495,-1.883833 c 0.0544,-2.068915 0.13131,-2.490276 0.56148,-3.075212 0.13888,-0.188858 0.45447,-0.455253 0.70131,-0.591998 0.40324,-0.223393 0.52611,-0.248624 1.21078,-0.248624 0.64532,0 0.82576,0.03241 1.17839,0.211667 0.7171,0.364524 1.10026,1.036836 1.2614,2.213305 l 0.10021,0.731639 2.11035,-1.641806 c 1.16069,-0.902995 2.12271,-1.641805 2.13783,-1.641805 0.0151,0 0.0275,0.246651 0.0275,0.548115 v 0.548124 l -2.159,1.672768 c -2.0408,1.581183 -2.159,1.687914 -2.159,1.949543 v 0.276784 h 2.159 2.159 v 0.465666 0.465667 z m -0.7016,-3.808798 c -0.42859,-1.171567 -1.70892,-1.471117 -2.55844,-0.598576 -0.3662,0.376106 -0.45259,0.804384 -0.45259,2.243531 v 1.23251 h 1.55222 c 0.85372,0 1.58197,-0.02858 1.61832,-0.0635 0.12032,-0.115587 -0.009,-2.40356 -0.15951,-2.813965 z m 0.7143,-3.811202 h -4.65666 v -0.465667 -0.465667 h 4.23333 4.23333 v -1.778 -1.778 h 0.42334 0.42333 v 2.243667 2.243667 z m -8.382,109.982 h -0.67733 V 95.066239 37.492903 h 0.67733 0.67734 v 57.573336 57.573331 z m -2.5048,-105.87786 c -0.32365,2.082927 -1.01381,3.835062 -2.22277,5.643025 -2.08666,3.120534 -4.87319,5.049097 -8.451281,5.849147 -0.737726,0.164947 -1.08045,0.186478 -2.992157,0.187985 -1.91602,0.0015 -2.254902,-0.01931 -3.01114,-0.185039 -3.56442,-0.781101 -6.394113,-2.727046 -8.463512,-5.820258 -2.252365,-3.366702 -2.934196,-7.225987 -1.989451,-11.260667 0.268688,-1.147471 0.855995,-2.8194 1.072417,-3.052928 l 0.1916,-0.206739 h 4.241226 4.241224 l 0.207818,0.207814 c 0.151941,0.151943 0.207818,0.299636 0.207818,0.549284 0,0.316992 -0.05354,0.394623 -0.747144,1.083352 -0.875741,0.869578 -1.258828,1.469797 -1.638249,2.566806 -0.261812,0.756971 -0.276484,0.863134 -0.274324,1.985078 0.002,1.054955 0.02713,1.25984 0.228166,1.862666 0.501488,1.503748 1.571472,2.783256 2.85775,3.417359 0.905972,0.446617 1.644324,0.600981 2.883425,0.602835 1.867603,0.0028 2.974048,-0.432833 4.194849,-1.65161 0.638728,-0.637667 0.832758,-0.896493 1.113799,-1.485722 0.462514,-0.969704 0.610395,-1.634862 0.610395,-2.745528 0,-1.137573 -0.148229,-1.779973 -0.654229,-2.835326 -0.329113,-0.686427 -0.500908,-0.920522 -1.180559,-1.608667 -0.437468,-0.442942 -0.817335,-0.891066 -0.844149,-0.995841 -0.06931,-0.270815 0.02633,-0.581211 0.240594,-0.780821 0.180002,-0.1677 0.282097,-0.171679 4.405484,-0.171679 h 4.22122 l 0.19309,0.193091 c 0.37403,0.374032 1.11726,2.784636 1.36469,4.426272 0.15738,1.044135 0.15402,3.192365 -0.007,4.226111 z m -0.61288,-4.841172 c -0.21588,-0.994241 -0.56755,-2.189777 -0.85277,-2.899097 l -0.22312,-0.554872 -4.04373,-0.02199 c -3.534109,-0.01922 -4.04988,-0.0059 -4.092572,0.105309 -0.03131,0.08158 0.163985,0.355194 0.543895,0.761991 1.013062,1.084784 1.565805,2.062066 1.888887,3.339694 0.15288,0.604563 0.17339,0.881617 0.1408,1.901986 -0.0318,0.994046 -0.0755,1.307939 -0.26093,1.871675 -0.604352,1.837386 -2.107277,3.379445 -3.876153,3.977099 -0.622998,0.21049 -0.870699,0.245194 -1.995266,0.279544 -1.575407,0.04813 -2.257516,-0.0783 -3.409321,-0.631927 -1.280037,-0.615256 -2.359684,-1.807193 -2.941359,-3.247272 -0.472811,-1.170567 -0.578382,-3.023878 -0.243354,-4.27211 0.320844,-1.195384 1.109402,-2.487643 2.004607,-3.285067 0.329907,-0.29387 0.504718,-0.509854 0.475112,-0.587003 -0.03823,-0.09963 -0.433427,-0.132342 -2.150281,-0.177978 -3.491622,-0.09282 -5.921558,-0.07253 -6.023498,0.0503 -0.176687,0.212894 -0.876074,2.415879 -1.081625,3.406978 -0.92165,4.443925 0.495238,9.023393 3.820759,12.348914 2.698151,2.698149 6.249109,3.97339 10.275509,3.690196 1.26259,-0.0888 2.121068,-0.253627 3.309744,-0.635448 4.396446,-1.41224 7.925226,-5.595434 8.807136,-10.440417 0.22094,-1.213781 0.18327,-3.802651 -0.0725,-4.980508 z m -0.24283,4.123698 c -0.51783,4.835348 -3.95376,9.246414 -8.433316,10.826742 -1.27602,0.450165 -2.227087,0.611184 -3.911515,0.662229 -3.280219,0.09942 -5.774148,-0.635457 -8.140352,-2.398674 -0.719686,-0.536287 -1.916082,-1.745624 -2.515864,-2.543074 -1.882499,-2.502916 -2.70282,-4.936363 -2.706558,-8.028889 -0.0015,-1.234373 0.03001,-1.590294 0.221253,-2.499479 0.211741,-1.006636 0.83813,-3.004194 0.991644,-3.162342 0.04042,-0.04165 1.586903,-0.04644 3.547505,-0.01101 l 3.475846,0.06283 -0.471214,0.518998 c -0.86477,0.952466 -1.494446,2.256917 -1.727802,3.579351 -0.13275,0.752298 -0.06661,2.410909 0.124425,3.120314 0.308567,1.145854 1.068888,2.419427 1.929328,3.231736 1.314386,1.240849 2.742222,1.755216 4.848456,1.746622 0.925323,-0.0038 1.333909,-0.04413 1.862666,-0.183938 1.092072,-0.288756 1.963934,-0.766784 2.753837,-1.509869 1.533541,-1.442644 2.210621,-2.997564 2.222891,-5.104884 0.0111,-1.908979 -0.53192,-3.388115 -1.795407,-4.890423 l -0.517028,-0.614748 3.572115,0.02208 3.57212,0.02209 0.23894,0.689855 c 0.62553,1.805974 0.92428,3.499536 0.90331,5.120674 -0.007,0.576115 -0.0278,1.180821 -0.0453,1.343804 z m 0.1085,82.778104 -0.20433,0.23756 -12.601497,0.025 c -8.865947,0.0176 -12.695477,-0.002 -12.918512,-0.0667 -0.599446,-0.17346 -0.571992,0.16386 -0.571992,-7.02789 0,-5.49556 0.01825,-6.47838 0.124137,-6.68313 0.109343,-0.21145 0.467576,-0.37745 3.005788,-1.3928 1.584907,-0.634 2.998826,-1.15274 3.142042,-1.15274 0.174913,0 0.341635,0.0812 0.507879,0.24749 l 0.247487,0.24749 v 3.85884 3.85885 h 1.312333 1.312334 v -3.24704 c 0,-2.15806 0.03147,-3.33731 0.09385,-3.51624 0.175383,-0.5031 0.274121,-0.51806 3.419821,-0.51806 3.025584,0 3.214812,0.0231 3.42649,0.41865 0.05558,0.10385 0.08718,1.37713 0.08718,3.51279 v 3.3499 h 1.439334 1.439336 v -6.84911 -6.84912 l 0.1983,-0.19086 c 0.21644,-0.20832 5.73877,-2.44917 6.03937,-2.45066 0.1012,-8.5e-4 0.30122,0.0977 0.4445,0.21828 l 0.26049,0.21919 v 11.75634 11.75642 z m -0.66872,-23.26557 c -0.16568,-0.0755 -0.57818,0.063 -2.68816,0.90253 -1.37085,0.54544 -2.54008,1.05087 -2.59828,1.12317 -0.0827,0.10271 -0.10584,1.60717 -0.10584,6.8772 0,6.69627 -0.001,6.74737 -0.17548,6.96881 l -0.17548,0.22309 h -1.745226 c -1.675343,0 -1.753078,-0.007 -1.941188,-0.18409 l -0.195957,-0.18409 v -3.28724 c 0,-3.19684 -0.0048,-3.29201 -0.17288,-3.46013 -0.167521,-0.16752 -0.25138,-0.17211 -2.70522,-0.14816 -1.936858,0.0189 -2.558193,0.0506 -2.642286,0.13467 -0.08502,0.085 -0.119547,0.87853 -0.152281,3.49941 -0.04036,3.23122 -0.05001,3.39507 -0.206682,3.50955 -0.128217,0.0937 -0.517913,0.12008 -1.772543,0.12008 -1.534644,0 -1.617157,-0.008 -1.804151,-0.18409 l -0.195957,-0.18409 v -3.64941 c 0,-3.16596 -0.01746,-3.67433 -0.131801,-3.83757 -0.07249,-0.1035 -0.196967,-0.18817 -0.276613,-0.18817 -0.248806,0 -5.046771,1.95116 -5.160022,2.0984 -0.08503,0.11054 -0.102686,1.42555 -0.08467,6.30508 0.01984,5.37147 0.03912,6.17573 0.149768,6.24566 0.202683,0.12809 24.746729,0.1096 24.875069,-0.0187 0.078,-0.078 0.1016,-2.71349 0.1016,-11.34714 v -11.2456 z M 93.891636,127.9169 H 81.784302 v -5.99534 -5.99535 l 2.265485,-0.90498 c 1.246018,-0.49775 2.292226,-0.90499 2.324907,-0.90499 0.03268,0 0.07049,1.62877 0.08402,3.6195 0.02439,3.58938 0.02616,3.6217 0.213426,3.88422 0.356059,0.49917 0.601393,0.55291 2.389969,0.52355 1.461884,-0.024 1.621009,-0.0414 1.839108,-0.20163 0.527977,-0.38776 0.534814,-0.43772 0.534959,-3.90981 l 1.31e-4,-3.15383 h 2.324524 2.324523 l 0.02498,3.19616 c 0.02359,3.01938 0.03434,3.21203 0.19431,3.48293 0.319275,0.54068 0.559598,0.60224 2.350898,0.60224 1.726158,0 1.965618,-0.0471 2.348098,-0.46155 l 0.21167,-0.22937 0.0423,-6.81719 0.0423,-6.81717 2.20134,-0.88152 c 1.21073,-0.48484 2.26801,-0.90277 2.3495,-0.92873 0.14059,-0.0448 0.14817,0.51364 0.14817,10.92282 V 127.9169 Z M 106.90913,99.358856 c -0.30734,0.279865 -33.019549,13.995384 -33.379699,13.995384 -0.210046,0 -0.368463,-0.0643 -0.511977,-0.20781 l -0.207819,-0.20783 v -4.95213 -4.95212 l 0.1905,-0.21142 c 0.140154,-0.15554 2.579376,-1.15679 9.229469,-3.788517 4.971433,-1.967408 9.010033,-3.602397 8.974667,-3.633309 -0.03537,-0.0309 -4.102688,-1.669525 -9.038493,-3.64137 -5.596052,-2.235615 -9.04608,-3.657067 -9.165167,-3.776159 l -0.190976,-0.190974 v -4.945304 -4.945304 l 0.223212,-0.223207 c 0.152268,-0.152273 0.313296,-0.223215 0.506642,-0.223215 0.377517,0 33.203221,13.985038 33.411981,14.234813 0.13609,0.162831 0.14816,0.475488 0.14816,3.836145 v 3.658862 z M 106.2318,92.070927 C 105.87279,91.843749 74.01303,78.302238 73.837539,78.302238 c -0.0964,0 -0.21472,0.07369 -0.262925,0.163771 -0.0572,0.106866 -0.08764,1.694595 -0.08764,4.570044 v 4.406282 l 0.1905,0.122462 c 0.104775,0.06736 4.21005,1.728309 9.122833,3.69101 6.161846,2.461709 8.977706,3.625748 9.078617,3.752985 0.202329,0.255109 0.18593,0.600761 -0.04045,0.852585 -0.140626,0.15643 -2.529047,1.136354 -9.122834,3.742927 -4.912783,1.942056 -8.999008,3.588276 -9.0805,3.658266 -0.137574,0.11815 -0.148166,0.44146 -0.148166,4.52236 0,2.86775 0.03046,4.45202 0.08764,4.55887 0.0482,0.0901 0.171721,0.16377 0.27448,0.16377 0.223898,0 32.211986,-13.431188 32.425036,-13.614652 0.13638,-0.117433 0.14817,-0.389162 0.14817,-3.414514 V 92.191475 Z M 90.611825,105.0514 c -8.464055,3.55816 -15.684465,6.59472 -16.045356,6.7479 l -0.656167,0.27851 v -4.25328 -4.25329 l 8.741833,-3.46125 c 4.808009,-1.903693 8.903034,-3.535432 9.100057,-3.626076 0.432847,-0.199144 0.700224,-0.599059 0.699794,-1.046666 -5.08e-4,-0.515832 -0.26349,-0.856319 -0.870258,-1.126676 -0.289534,-0.129015 -4.383508,-1.773886 -9.09772,-3.655281 l -8.571296,-3.420719 -0.0012,-4.246322 -0.0012,-4.246321 1.672166,0.711809 c 0.919692,0.391499 8.130117,3.465856 16.023167,6.831898 l 14.350995,6.120088 0.0222,3.088149 0.0222,3.088149 -15.389185,6.469378 z M 106.92795,86.074579 c -0.18892,0.202794 -0.51215,0.312047 -0.73984,0.25008 -0.12969,-0.0353 -24.08724,-9.234831 -24.98649,-9.594639 -0.615265,-0.246177 -0.602651,-0.155922 -0.602651,-4.312116 0,-3.909754 0.01606,-4.080019 0.399034,-4.229557 0.08321,-0.03249 5.759418,-2.17071 12.613787,-4.751595 8.03127,-3.024023 12.57088,-4.692515 12.76734,-4.692515 0.21079,0 0.36899,0.06413 0.51268,0.207814 l 0.20782,0.207823 v 3.764594 c 0,2.070523 -0.0237,3.826476 -0.0528,3.902117 -0.0754,0.196511 -0.43975,0.359571 -2.46606,1.103706 l -1.79917,0.660714 v 3.917501 3.91751 l 1.9685,0.774463 c 1.08268,0.425958 2.05423,0.854752 2.159,0.952873 l 0.1905,0.178401 v 3.779283 c 0,3.679436 -0.005,3.784143 -0.17168,3.963543 z m -0.57218,-7.407216 c -0.0352,-0.0553 -0.93945,-0.445931 -2.00953,-0.868062 -1.1648,-0.459495 -2.00507,-0.83914 -2.09378,-0.945998 -0.13669,-0.164668 -0.14816,-0.501607 -0.14816,-4.350732 0,-3.849294 0.0115,-4.186022 0.14816,-4.350275 0.0929,-0.111684 0.84233,-0.433883 2.01084,-0.864582 1.02447,-0.377605 1.92934,-0.722156 2.01083,-0.765658 0.13727,-0.0733 0.14817,-0.324705 0.14817,-3.41851 V 59.76414 l -0.19397,-0.127093 c -0.18301,-0.119913 -0.8871,0.133706 -12.46716,4.490712 -6.750261,2.539788 -12.320826,4.679831 -12.379035,4.75565 -0.153059,0.199374 -0.153059,6.868737 0,7.070954 0.09232,0.121971 24.095535,9.415806 24.596155,9.523418 0.44385,0.0954 0.44411,0.09334 0.44271,-3.439406 -6.8e-4,-1.79876 -0.0301,-3.315716 -0.0652,-3.371012 z m -0.4199,6.323542 c -0.0347,0 -5.48299,-2.084383 -12.107326,-4.631961 L 81.784302,75.726983 v -3.306928 -3.306936 l 11.992142,-4.514292 c 6.595676,-2.482867 12.043976,-4.534188 12.107326,-4.558504 0.0958,-0.03678 0.1152,0.474616 0.1152,3.045282 v 3.089487 l -1.88384,0.693403 c -1.56682,0.576724 -1.93014,0.742027 -2.159,0.982337 l -0.27517,0.288916 v 4.358632 4.358632 l 0.25061,0.28542 c 0.20786,0.236744 0.57607,0.412817 2.159,1.032408 l 1.9084,0.746989 v 3.034538 c 0,1.669 -0.0284,3.034538 -0.0631,3.034538 z M 97.252536,70.314352 c -0.201527,-0.307187 -0.63198,-0.562796 -0.9479,-0.562881 -0.1397,-3.3e-5 -1.37795,0.382592 -2.751667,0.850282 -2.87086,0.977392 -2.96544,1.033391 -3.028439,1.79308 -0.03321,0.400465 -0.01035,0.486698 0.193138,0.728522 0.126942,0.150868 0.331041,0.324231 0.453553,0.385259 0.122511,0.06103 1.308598,0.478562 2.635748,0.927845 2.169099,0.734314 2.443439,0.808423 2.714147,0.733197 0.352757,-0.09802 0.733382,-0.465828 0.841599,-0.813249 0.042,-0.13484 0.06876,-1.047073 0.05948,-2.027183 -0.01476,-1.557037 -0.03618,-1.811409 -0.169655,-2.014872 z m -0.520719,4.224071 c -0.114802,0.1148 -0.307024,0.207815 -0.429467,0.207815 -0.121908,0 -1.295214,-0.364516 -2.607349,-0.810032 -2.549111,-0.865522 -2.766699,-0.982277 -2.766699,-1.484537 0,-0.461526 0.238481,-0.583675 2.858808,-1.464234 2.286522,-0.768375 2.497565,-0.824475 2.733735,-0.726651 0.140761,0.05831 0.292573,0.174481 0.33736,0.258165 0.04492,0.08395 0.08143,0.972456 0.08143,1.981903 v 1.829749 z m -0.533015,-3.603506 c -0.09588,-0.0019 -4.372557,1.459331 -4.440526,1.517303 -0.03246,0.02769 0.967661,0.40126 2.2225,0.830148 l 2.281526,0.779797 v -1.562964 c 0,-0.859629 -0.02857,-1.563556 -0.0635,-1.564284 z"/>
</g>
</svg>
